<svg width="35" height="34" viewBox="0 0 35 34" fill="none" xmlns="http://www.w3.org/2000/svg">
<g clip-path="url(#clip0_65_277)">
<path d="M17.1692 0.0595703C13.4206 0.0636944 9.82676 1.55454 7.17597 4.20506C4.52519 6.85558 3.03398 10.4493 3.02948 14.1979C3.02948 17.8387 5.84865 23.5366 11.4091 31.1327C12.071 32.0396 12.9377 32.7773 13.9387 33.2859C14.9396 33.7945 16.0465 34.0596 17.1692 34.0596C18.292 34.0596 19.3989 33.7945 20.3998 33.2859C21.4007 32.7773 22.2674 32.0396 22.9294 31.1327C28.4898 23.5366 31.309 17.8387 31.309 14.1979C31.3045 10.4493 29.8133 6.85558 27.1625 4.20506C24.5117 1.55454 20.9178 0.0636944 17.1692 0.0595703ZM17.1692 19.8334C16.0485 19.8334 14.9529 19.5011 14.021 18.8784C13.0891 18.2557 12.3628 17.3707 11.9339 16.3353C11.505 15.2998 11.3928 14.1605 11.6114 13.0612C11.8301 11.962 12.3698 10.9523 13.1623 10.1598C13.9548 9.3673 14.9645 8.8276 16.0637 8.60895C17.1629 8.3903 18.3023 8.50252 19.3378 8.93142C20.3732 9.36032 21.2582 10.0866 21.8809 11.0185C22.5036 11.9504 22.8359 13.046 22.8359 14.1667C22.8359 15.6696 22.2389 17.111 21.1762 18.1737C20.1135 19.2364 18.6721 19.8334 17.1692 19.8334Z" fill="#F96B20"/>
</g>
<defs>
<clipPath id="clip0_65_277">
<rect width="34" height="34" fill="white" transform="translate(0.16925)"/>
</clipPath>
</defs>
</svg>
