<svg width="103" height="103" viewBox="0 0 103 103" fill="none" xmlns="http://www.w3.org/2000/svg">
<g clip-path="url(#clip0_59_43)">
<path d="M102.056 17.6138C102.056 8.23827 94.4319 0.61377 85.0564 0.61377C75.6809 0.61377 68.0564 8.23827 68.0564 17.6138C68.0564 17.8985 68.1286 18.1663 68.1414 18.4468L31.4469 29.9133C28.4421 25.098 23.1381 21.8638 17.0564 21.8638C7.68087 21.8638 0.056366 29.4883 0.056366 38.8638C0.056366 48.2393 7.68087 55.8638 17.0564 55.8638C20.4649 55.8638 23.6311 54.831 26.2959 53.097L53.1134 77.679C51.8426 80.059 51.0564 82.7323 51.0564 85.6138C51.0564 94.9893 58.6809 102.614 68.0564 102.614C77.4319 102.614 85.0564 94.9893 85.0564 85.6138C85.0564 79.1835 81.4269 73.6458 76.1484 70.7558L85.1881 34.601C94.4999 34.5288 102.056 26.9425 102.056 17.6138ZM70.6659 26.5643C72.2171 29.0463 74.3889 31.0608 76.9644 32.4718L67.9289 68.6308C64.5714 68.6563 61.4519 69.672 58.8211 71.3805L32.0036 46.7985C33.2744 44.4185 34.0606 41.7453 34.0606 38.8638C34.0606 38.579 33.9884 38.3113 33.9756 38.0308L70.6659 26.5643Z" fill="#F96B20"/>
</g>
<defs>
<clipPath id="clip0_59_43">
<rect width="102" height="102" fill="white" transform="translate(0.056366 0.61377)"/>
</clipPath>
</defs>
</svg>
