<svg width="121" height="121" viewBox="0 0 121 121" fill="none" xmlns="http://www.w3.org/2000/svg">
<path d="M20.2854 44.9708C11.3654 45.0308 5.79041 51.0358 5.79041 59.9708C5.79041 69.4208 11.2404 75.0808 20.3554 75.1408C29.4104 75.0808 34.6904 69.6158 34.8554 59.9758C34.7004 50.7858 29.1454 45.0358 20.2854 44.9758V44.9708Z" fill="#F96B20"/>
<path d="M60.7554 44.9708C51.8354 45.0308 46.2604 51.0358 46.2604 59.9708C46.2604 69.4208 51.7104 75.0808 60.8254 75.1408C69.8804 75.0808 75.1604 69.6158 75.3254 59.9758C75.1704 50.7858 69.6154 45.0358 60.7554 44.9758V44.9708Z" fill="#F96B20"/>
<path d="M101.22 44.9708C92.3003 45.0308 86.7253 51.0358 86.7253 59.9708C86.7253 69.4208 92.1753 75.0808 101.29 75.1408C110.345 75.0808 115.625 69.6158 115.79 59.9758C115.635 50.7858 110.08 45.0358 101.22 44.9758V44.9708Z" fill="#F96B20"/>
</svg>
