<svg width="40" height="39" viewBox="0 0 40 39" fill="none" xmlns="http://www.w3.org/2000/svg">
<g clip-path="url(#clip0_10_79)">
<path d="M21.8057 35.658C21.8057 25.8325 29.7712 17.8669 39.5967 17.8669C39.5967 27.6925 31.6312 35.658 21.8057 35.658ZM18.5709 35.658C18.5709 25.8325 10.6054 17.8669 0.779846 17.8669C0.779846 27.6925 8.7454 35.658 18.5709 35.658ZM20.1883 27.5712C21.8477 23.6054 24.6878 20.2509 28.2671 17.9526C27.9306 12.6428 25.4787 7.39122 21.3318 3.2459L20.1883 2.10242L19.0448 3.2459C14.8995 7.39122 12.4459 12.6428 12.1095 17.9526C15.6888 20.2509 18.5289 23.6054 20.1883 27.5712Z" fill="#F96B20"/>
</g>
<defs>
<clipPath id="clip0_10_79">
<rect width="38.8169" height="38.8169" fill="white" transform="translate(0.779846 0.0758667)"/>
</clipPath>
</defs>
</svg>
