<svg width="39" height="39" viewBox="0 0 39 39" fill="none" xmlns="http://www.w3.org/2000/svg">
<path d="M35.5897 12.1213C34.7109 13.0681 32.2821 15.5682 28.7512 18.2915C25.0494 21.1478 20.8567 23.45 20.6794 23.5466C20.4435 23.6764 20.1822 23.7413 19.921 23.7413C19.6597 23.7413 19.3985 23.6764 19.161 23.5466C18.9853 23.45 14.7926 21.1478 11.0892 18.2915C7.55833 15.5682 5.1295 13.0681 4.24917 12.1197L3.31658 11.1222C2.89067 13.3183 2.50433 16.2063 2.50433 19.4521C2.50433 26.5106 4.33467 31.8844 4.41383 32.1093C4.59117 32.6223 5.02025 33.0086 5.54908 33.1321C5.83092 33.1986 12.5474 34.7518 19.9226 34.7518C27.5527 34.7518 34.0364 33.1954 34.3087 33.1289C34.8312 33.0023 35.2524 32.6191 35.4297 32.1108C35.5073 31.8876 37.3392 26.5533 37.3392 19.4505C37.3392 16.1778 36.9561 13.2977 36.5333 11.1143L35.5928 12.1213H35.5897Z" fill="#F96B20"/>
<path d="M6.56717 9.96171C7.21476 10.6584 9.58659 13.1315 13.024 15.782C15.6302 17.7929 18.5657 19.5535 19.921 20.3357C21.2763 19.552 24.2182 17.7897 26.8164 15.7836C30.2554 13.1331 32.6257 10.66 33.2701 9.96488L35.634 7.4363C35.5168 7.05155 35.4393 6.82671 35.425 6.78555C35.2477 6.28046 34.8265 5.90046 34.3072 5.7738C34.0348 5.7073 27.5669 4.15088 19.9194 4.15088C12.4081 4.15088 5.81667 5.70571 5.53959 5.77221C5.01234 5.89888 4.58801 6.28363 4.41226 6.79505C4.39801 6.8378 4.32201 7.05946 4.20801 7.43946L6.56717 9.96488V9.96171Z" fill="#F96B20"/>
</svg>
