<svg width="35" height="34" viewBox="0 0 35 34" fill="none" xmlns="http://www.w3.org/2000/svg">
<g clip-path="url(#clip0_65_284)">
<path d="M21.3176 12.75H21.4196C23.7627 12.75 25.6696 10.8432 25.6696 8.5V4.25C25.6696 1.90683 23.7627 0 21.4196 0H12.9196C10.5764 0 8.66956 1.90683 8.66956 4.25V8.5C8.66956 10.8432 10.5764 12.75 12.9196 12.75H13.2057L15.8039 15.0407C16.2147 15.4034 16.729 15.5848 17.2432 15.5848C17.7504 15.5848 18.2576 15.4062 18.6571 15.0521L21.3176 12.7514V12.75ZM7.96123 25.5C10.6954 25.5 12.9196 23.2758 12.9196 20.5417C12.9196 17.8075 10.6954 15.5833 7.96123 15.5833C5.22706 15.5833 3.00289 17.8075 3.00289 20.5417C3.00289 23.2758 5.22706 25.5 7.96123 25.5ZM21.4196 20.5417C21.4196 23.2758 23.6437 25.5 26.3779 25.5C29.1121 25.5 31.3362 23.2758 31.3362 20.5417C31.3362 17.8075 29.1121 15.5833 26.3779 15.5833C23.6437 15.5833 21.4196 17.8075 21.4196 20.5417ZM7.96123 26.9167C4.51306 26.9167 1.41906 28.9935 0.258809 32.0861C0.0958922 32.521 0.156809 33.0083 0.420309 33.3908C0.686642 33.7733 1.12014 34 1.58481 34H14.3348C14.7995 34 15.2344 33.7719 15.4993 33.3908C15.7642 33.0083 15.8237 32.521 15.6608 32.0861C14.502 28.9935 11.4066 26.9167 7.95839 26.9167H7.96123ZM34.0803 32.0861C32.9215 28.9935 29.8261 26.9167 26.3779 26.9167C22.9297 26.9167 19.8357 28.9935 18.6755 32.0861C18.5126 32.521 18.5735 33.0083 18.837 33.3908C19.1033 33.7733 19.5368 34 20.0015 34H32.7515C33.2161 34 33.6511 33.7719 33.916 33.3908C34.1809 33.0083 34.2404 32.521 34.0775 32.0861H34.0803Z" fill="#F96B20"/>
</g>
<defs>
<clipPath id="clip0_65_284">
<rect width="34" height="34" fill="white" transform="translate(0.169373)"/>
</clipPath>
</defs>
</svg>
