<svg width="19" height="18" viewBox="0 0 19 18" fill="none" xmlns="http://www.w3.org/2000/svg">
<g clip-path="url(#clip0_10_159)">
<path d="M18.2342 8.24999C18.0353 8.24999 17.8446 8.17097 17.7039 8.03032C17.5632 7.88967 17.4842 7.6989 17.4842 7.49999C17.4826 5.90918 16.85 4.38398 15.7251 3.25911C14.6002 2.13423 13.075 1.50158 11.4842 1.49999C11.2853 1.49999 11.0946 1.42097 10.9539 1.28032C10.8132 1.13967 10.7342 0.948905 10.7342 0.749992C10.7342 0.55108 10.8132 0.360314 10.9539 0.219662C11.0946 0.0790099 11.2853 -7.76548e-06 11.4842 -7.76548e-06C13.4727 0.00217593 15.3791 0.793054 16.7851 2.1991C18.1912 3.60515 18.982 5.51154 18.9842 7.49999C18.9842 7.6989 18.9052 7.88967 18.7646 8.03032C18.6239 8.17097 18.4331 8.24999 18.2342 8.24999ZM15.9842 7.49999C15.9842 6.30652 15.5101 5.16193 14.6662 4.31801C13.8223 3.4741 12.6777 2.99999 11.4842 2.99999C11.2853 2.99999 11.0946 3.07901 10.9539 3.21966C10.8132 3.36031 10.7342 3.55108 10.7342 3.74999C10.7342 3.9489 10.8132 4.13967 10.9539 4.28032C11.0946 4.42097 11.2853 4.49999 11.4842 4.49999C12.2799 4.49999 13.0429 4.81606 13.6056 5.37867C14.1682 5.94128 14.4842 6.70434 14.4842 7.49999C14.4842 7.6989 14.5632 7.88967 14.7039 8.03032C14.8446 8.17097 15.0353 8.24999 15.2342 8.24999C15.4331 8.24999 15.6239 8.17097 15.7646 8.03032C15.9052 7.88967 15.9842 7.6989 15.9842 7.49999ZM17.6215 16.623L18.304 15.8362C18.7384 15.4004 18.9823 14.8102 18.9823 14.1949C18.9823 13.5795 18.7384 12.9893 18.304 12.5535C18.2807 12.5302 16.4762 11.142 16.4762 11.142C16.0431 10.7297 15.4679 10.5002 14.87 10.501C14.272 10.5019 13.6974 10.733 13.2655 11.1465L11.836 12.351C10.6691 11.8681 9.60914 11.1594 8.71694 10.2656C7.82474 9.37189 7.11789 8.31069 6.63698 7.14299L7.83698 5.71799C8.25077 5.28612 8.4822 4.7114 8.48318 4.11329C8.48416 3.51519 8.2546 2.93971 7.84223 2.50649C7.84223 2.50649 6.45248 0.704242 6.42923 0.680992C6.00132 0.250303 5.42114 0.00525875 4.81405 -0.00119668C4.20696 -0.0076521 3.6217 0.225 3.18473 0.646492L2.32223 1.39649C-2.77327 7.30799 8.19923 18.1957 14.3057 18C14.9224 18.0036 15.5335 17.8836 16.103 17.6471C16.6725 17.4106 17.1888 17.0623 17.6215 16.623Z" fill="#F96B20"/>
</g>
<defs>
<clipPath id="clip0_10_159">
<rect width="18" height="18" fill="white" transform="translate(0.984253)"/>
</clipPath>
</defs>
</svg>
