<svg width="107" height="107" viewBox="0 0 107 107" fill="none" xmlns="http://www.w3.org/2000/svg">
<g clip-path="url(#clip0_10_91)">
<path d="M71.647 62.6968H35.9339C30.1295 62.7038 24.5649 65.0127 20.4606 69.117C16.3564 73.2213 14.0475 78.7859 14.0405 84.5902V106.863H93.5405V84.5902C93.5334 78.7859 91.2246 73.2213 87.1203 69.117C83.016 65.0127 77.4514 62.7038 71.647 62.6968Z" fill="#F96B20"/>
<path d="M53.7905 53.8634C68.426 53.8634 80.2905 41.9989 80.2905 27.3634C80.2905 12.7279 68.426 0.863403 53.7905 0.863403C39.1549 0.863403 27.2905 12.7279 27.2905 27.3634C27.2905 41.9989 39.1549 53.8634 53.7905 53.8634Z" fill="#F96B20"/>
</g>
<defs>
<clipPath id="clip0_10_91">
<rect width="106" height="106" fill="white" transform="translate(0.790466 0.863403)"/>
</clipPath>
</defs>
</svg>
