<svg width="913" height="854" viewBox="0 0 913 854" xmlns="http://www.w3.org/2000/svg">
  <path
    fillRule="evenodd"
    clipRule="evenodd"
    d="M35 717.833C15.67 717.833 0 702.163 0 682.833V320.674C0 301.344 15.67 285.674 35 285.674H142.871C162.201 285.674 177.871 270.004 177.871 250.674V35.0802C177.871 15.7502 193.541 0.0801697 212.871 0.0801697H565.473C584.803 0.0801697 600.473 15.7502 600.473 35.0802V299.649C600.473 318.979 616.143 334.649 635.473 334.649H878C897.33 334.649 913 350.319 913 369.649V818.88C913 838.21 897.33 853.88 878 853.88H381.642C362.312 853.88 346.642 838.21 346.642 818.88V752.833C346.642 733.503 330.972 717.833 311.642 717.833H35Z"
    fill="white"
  />
</svg>
