<svg xmlns="http://www.w3.org/2000/svg" width="514" height="679" viewBox="0 0 514 679" fill="none">
  <path fill-rule="evenodd" clip-rule="evenodd" d="M0 35.8025C0 16.4725 15.67 0.80249 35 0.80249H366C385.33 0.80249 401 16.4726 401 35.8025V164.041C401 183.371 416.67 199.041 436 199.041H478.55C497.88 199.041 513.55 214.711 513.55 234.041V643.497C513.55 662.827 497.88 678.497 478.55 678.497H267.161C247.831 678.497 232.161 662.827 232.161 643.497V565.788C232.161 546.458 216.491 530.788 197.161 530.788H35C15.67 530.788 0 515.118 0 495.788V35.8025Z" fill="red"/>
</svg>