<svg xmlns="http://www.w3.org/2000/svg" width="1580" height="434" viewBox="0 0 1580 434" fill="none">
  <path fill-rule="evenodd" clip-rule="evenodd" d="M35.8906 359.856C16.5607 359.856 0.890625 344.186 0.890625 324.856V141.743C0.890625 122.413 16.5606 106.743 35.8906 106.743H297.761C317.091 106.743 332.761 91.0726 332.761 71.7427V35.9307C332.761 16.6008 348.431 0.930725 367.761 0.930725H1402.98C1422.31 0.930725 1437.98 16.6007 1437.98 35.9307V56.1397C1437.98 75.4696 1453.65 91.1397 1472.98 91.1397H1544.11C1563.44 91.1397 1579.11 106.81 1579.11 126.14V398.923C1579.11 418.253 1563.44 433.923 1544.11 433.923H729.26C709.93 433.923 694.26 418.253 694.26 398.923V394.856C694.26 375.526 678.59 359.856 659.26 359.856H35.8906Z" fill="white"/>
</svg>
